<svg id="arrow" xmlns="http://www.w3.org/2000/svg" width="96.127" height="17.333" viewBox="0 0 96.127 17.333">
  <g id="Tracé_5" data-name="Tracé 5" transform="translate(0 -0.001)" fill="none" stroke-linecap="round" stroke-linejoin="round">
    <path d="M1,1H95.125L79.961,15.92" stroke="none"/>
    <path d="M 95.12657165527344 0.000488371413666755 L 1.000306725502014 0.000488371413666755 C 0.8622197508811951 0.000488371413666755 0.7307252883911133 0.02832552418112755 0.6110737323760986 0.07862766832113266 C 0.4915444254875183 0.1294180601835251 0.3837361335754395 0.2026732414960861 0.293387234210968 0.2935093343257904 C 0.2029166221618652 0.3838567137718201 0.1297833174467087 0.4917847514152527 0.07935929298400879 0.6114328503608704 C 0.02881345339119434 0.7310803532600403 0.0009767244337126613 0.8624476790428162 0.001098811742849648 1.000651240348816 C 0.001220898237079382 1.138853907585144 0.02942356094717979 1.270218729972839 0.08021257817745209 1.389863014221191 C 0.1308792382478714 1.509506344795227 0.2042541354894638 1.61742901802063 0.2948432266712189 1.707771062850952 C 0.3854320347309113 1.798601388931274 0.4933570623397827 1.871851086616516 0.6130024790763855 1.922637581825256 C 0.732769787311554 1.972935676574707 0.8642576336860657 2.000770330429077 1.002338647842407 2.000770330429077 L 92.68347930908203 2.000770330429077 L 79.25968933105469 15.20772171020508 C 79.16127777099609 15.30435657501221 79.08712005615234 15.41660499572754 79.037353515625 15.53666400909424 C 78.98747253417969 15.6567211151123 78.96199035644531 15.78458786010742 78.96091461181641 15.91245079040527 C 78.95984649658203 16.04031562805176 78.98330688476563 16.16818046569824 79.03105163574219 16.28872108459473 C 79.07893371582031 16.40926361083984 79.1512451171875 16.52248573303223 79.24786376953125 16.62106513977051 C 79.29682922363281 16.67084121704102 79.3494873046875 16.71427726745605 79.40531921386719 16.75185394287109 C 79.46102905273438 16.78894233703613 79.51967620849609 16.81968688964844 79.58029937744141 16.84457588195801 C 79.64115142822266 16.86946487426758 79.7037353515625 16.88849830627441 79.76729583740234 16.90069580078125 C 79.83098602294922 16.91289710998535 79.89553833007813 16.91924095153809 79.96009826660156 16.91924095153809 C 80.02344512939453 16.91924095153809 80.0867919921875 16.91289710998535 80.14929962158203 16.90118408203125 C 80.21168518066406 16.88947105407715 80.27323913574219 16.87141609191895 80.33283996582031 16.84750366210938 C 80.39256286621094 16.8235912322998 80.45046234130859 16.7938232421875 80.50557708740234 16.75770950317383 C 80.56067657470703 16.72159576416016 80.61311340332031 16.67962646484375 80.66189575195313 16.63180160522461 L 95.82648468017578 1.7131427526474 C 95.89891052246094 1.64233410358429 95.95877838134766 1.561758518218994 96.00535583496094 1.475322604179382 C 96.05205535888672 1.388886213302612 96.08557891845703 1.296589493751526 96.10506439208984 1.201362133026123 C 96.12456512451172 1.106134653091431 96.1302490234375 1.007976412773132 96.12154388427734 0.9103062152862549 C 96.11296081542969 0.812635600566864 96.08972930908203 0.7154529690742493 96.05133819580078 0.6216883659362793 C 96.01295471191406 0.5279234051704407 95.96137237548828 0.4419718682765961 95.89926147460938 0.3657872676849365 C 95.8370361328125 0.290090799331665 95.7642822265625 0.2241613864898682 95.68357086181641 0.1704409867525101 C 95.60298156738281 0.1162321045994759 95.51441955566406 0.07374396175146103 95.42072296142578 0.04493012651801109 C 95.32701110839844 0.01611625030636787 95.22802734375 0.000488371413666755 95.12657165527344 0.000488371413666755 Z" stroke="none" fill="#fff"/>
  </g>
</svg>
